<svg width="56" height="48" viewBox="0 0 56 48" fill="none" xmlns="http://www.w3.org/2000/svg">
<path d="M30.6666 18.941C30.1964 13.1781 25.2358 4.30505 1.03701 0C-1.76484 0.537491 1.93338 4.28968 2.52619 5.0493C5.05088 8.2844 5.19246 12.0743 6.37662 15.8359C8.62416 22.975 15.9415 28.033 23.4279 27.2789C22.3824 25.2419 21.8762 24.8243 19.9431 23.7703C18.2027 22.8213 16.6569 21.2898 15.0586 20.0996C14.7695 19.8844 13.7884 19.3927 14.0325 18.9474C14.3028 18.4543 15.6257 18.9363 15.9338 19.0811C16.8567 19.5149 19.4156 21.2556 18.3456 18.9201C17.6617 17.4271 16.2419 16.4719 15.1063 15.3717C14.716 14.9936 12.4344 12.5448 13.8923 12.6969C14.8848 12.8005 16.112 14.654 16.7858 15.3107C17.0868 15.604 18.2765 16.9754 18.7333 16.8652C19.6508 16.6438 15.1895 11.2332 15.832 10.26C16.4445 9.33211 19.7185 15.7095 20.3199 16.0164C21.232 16.4821 21.1174 15.8167 20.9403 15.05C20.6849 13.9439 19.432 12.3325 19.7217 11.1567C20.0558 9.80104 20.8832 11.0308 21.1708 11.7008C21.7087 12.954 22.0049 14.3141 22.5296 15.5772C23.9183 18.92 23.2648 12.6725 24.012 12.4203C25.3645 11.9638 24.6696 16.468 24.7431 17.0191C25.0101 19.0205 26.5233 20.6236 26.8316 22.6278C27.928 21.3264 29.2078 20.0958 30.6666 18.941Z" fill="#AAFAFF"/>
<path d="M55.2186 13.3107C55.1065 12.604 54.5939 12.078 53.9039 11.8909C41.7042 14.5648 23.3456 21.2062 24.6094 36.7966C24.8891 40.2465 25.7639 43.9388 28.9546 45.7348C29.1994 44.8304 29.4441 43.9262 29.6889 43.0219C28.4401 39.3991 31.3155 35.7638 30.4342 32.0047C30.3726 31.7417 29.6178 27.1447 30.9217 28.2211C31.5116 28.7079 31.5079 30.4594 31.6397 31.1722C31.7111 31.5582 31.9365 33.5385 32.4358 33.5719C33.6914 33.6562 32.9318 26.5202 34.3046 25.7278C36.6784 24.3574 33.2654 34.5952 35.453 32.6689C36.5516 31.7014 37.0208 28.874 37.5535 27.5965C37.7587 27.1044 38.2791 25.2799 38.8829 25.1019C40.2143 24.7095 37.9421 30.6319 37.7568 31.1592C37.5639 31.7084 37.1616 32.4778 37.1718 33.0758C37.1869 33.9614 37.3395 33.8355 38.0288 33.19C38.2511 32.9818 38.4391 32.7281 38.6418 32.5012V32.5011C39.6277 31.3981 40.2704 30.0096 41.3032 28.9403C41.5136 28.7223 41.9321 28.1645 42.3009 28.2396C43.3714 28.4573 40.9975 31.9188 40.7489 32.2273C39.7149 33.5105 38.0703 35.2072 37.9541 36.9813C37.7386 40.2784 41.5371 34.8539 42.8207 36.3941C43.4212 37.1145 41.5926 38.2416 41.2015 38.6206C39.6969 40.0795 38.5122 41.8335 36.7393 42.9725C34.9476 44.1237 34.5796 45.1993 33.9624 47.2313C43.5024 48.3066 50.1908 39.8074 50.8828 30.9823C51.1363 27.7502 51.0003 24.4421 51.9404 21.3043C52.4855 19.4848 53.4652 17.9999 54.3598 16.3498C54.8469 15.4513 55.3867 14.372 55.2186 13.3107Z" fill="#AAFAFF"/>
</svg>
